<mxfile host="app.diagrams.net" agent="Mozilla/5.0 (Windows NT 10.0; Win64; x64) AppleWebKit/537.36 (KHTML, like Gecko) Chrome/133.0.0.0 Safari/537.36 Edg/133.0.0.0" version="26.0.15">
  <diagram name="Page-1" id="T8xCq8YEDl1LN1_c2CVZ">
    <mxGraphModel dx="1826" dy="1181" grid="1" gridSize="10" guides="1" tooltips="1" connect="1" arrows="1" fold="1" page="0" pageScale="1" pageWidth="850" pageHeight="1100" math="0" shadow="0">
      <root>
        <mxCell id="0" />
        <mxCell id="1" parent="0" />
        <mxCell id="6LMTRIs1-OpR8eB_vIV9-89" style="edgeStyle=orthogonalEdgeStyle;rounded=0;orthogonalLoop=1;jettySize=auto;html=1;exitX=1;exitY=0.5;exitDx=0;exitDy=0;entryX=0.5;entryY=0;entryDx=0;entryDy=0;" edge="1" parent="1" source="6LMTRIs1-OpR8eB_vIV9-78" target="6LMTRIs1-OpR8eB_vIV9-6">
          <mxGeometry relative="1" as="geometry" />
        </mxCell>
        <mxCell id="6LMTRIs1-OpR8eB_vIV9-78" value="" style="ellipse;whiteSpace=wrap;html=1;aspect=fixed;fillColor=#d0cee2;strokeColor=#56517e;" vertex="1" parent="1">
          <mxGeometry x="50" y="-80" width="80" height="80" as="geometry" />
        </mxCell>
        <mxCell id="6LMTRIs1-OpR8eB_vIV9-77" value="" style="ellipse;whiteSpace=wrap;html=1;aspect=fixed;fillColor=#1ba1e2;fontColor=#ffffff;strokeColor=#006EAF;" vertex="1" parent="1">
          <mxGeometry x="-60" y="340" width="80" height="80" as="geometry" />
        </mxCell>
        <mxCell id="6LMTRIs1-OpR8eB_vIV9-76" value="" style="ellipse;whiteSpace=wrap;html=1;aspect=fixed;fillColor=#f0a30a;fontColor=#000000;strokeColor=#BD7000;" vertex="1" parent="1">
          <mxGeometry x="670" y="670" width="80" height="80" as="geometry" />
        </mxCell>
        <mxCell id="6LMTRIs1-OpR8eB_vIV9-104" style="edgeStyle=orthogonalEdgeStyle;rounded=0;orthogonalLoop=1;jettySize=auto;html=1;exitX=0.5;exitY=1;exitDx=0;exitDy=0;entryX=0.5;entryY=0;entryDx=0;entryDy=0;" edge="1" parent="1" source="6LMTRIs1-OpR8eB_vIV9-6" target="6LMTRIs1-OpR8eB_vIV9-46">
          <mxGeometry relative="1" as="geometry" />
        </mxCell>
        <mxCell id="6LMTRIs1-OpR8eB_vIV9-6" value="Log in&amp;nbsp;" style="ellipse;whiteSpace=wrap;html=1;fillColor=#b1ddf0;strokeColor=#10739e;" vertex="1" parent="1">
          <mxGeometry x="380" y="10" width="120" height="50" as="geometry" />
        </mxCell>
        <mxCell id="6LMTRIs1-OpR8eB_vIV9-81" style="edgeStyle=orthogonalEdgeStyle;rounded=0;orthogonalLoop=1;jettySize=auto;html=1;entryX=0;entryY=0.5;entryDx=0;entryDy=0;" edge="1" parent="1" source="6LMTRIs1-OpR8eB_vIV9-9" target="6LMTRIs1-OpR8eB_vIV9-33">
          <mxGeometry relative="1" as="geometry" />
        </mxCell>
        <mxCell id="6LMTRIs1-OpR8eB_vIV9-9" value="Manage task" style="ellipse;whiteSpace=wrap;html=1;fillColor=#e3c800;strokeColor=#B09500;fontColor=#000000;" vertex="1" parent="1">
          <mxGeometry x="380" y="180" width="120" height="50" as="geometry" />
        </mxCell>
        <mxCell id="6LMTRIs1-OpR8eB_vIV9-106" style="edgeStyle=orthogonalEdgeStyle;rounded=0;orthogonalLoop=1;jettySize=auto;html=1;exitX=0.5;exitY=1;exitDx=0;exitDy=0;entryX=0.5;entryY=0;entryDx=0;entryDy=0;" edge="1" parent="1" source="6LMTRIs1-OpR8eB_vIV9-10" target="6LMTRIs1-OpR8eB_vIV9-12">
          <mxGeometry relative="1" as="geometry" />
        </mxCell>
        <mxCell id="6LMTRIs1-OpR8eB_vIV9-10" value="Update database" style="ellipse;whiteSpace=wrap;html=1;fillColor=#e51400;fontColor=#ffffff;strokeColor=#B20000;" vertex="1" parent="1">
          <mxGeometry x="380" y="345" width="120" height="50" as="geometry" />
        </mxCell>
        <mxCell id="6LMTRIs1-OpR8eB_vIV9-11" style="edgeStyle=orthogonalEdgeStyle;rounded=0;orthogonalLoop=1;jettySize=auto;html=1;exitX=0.5;exitY=1;exitDx=0;exitDy=0;" edge="1" parent="1" source="6LMTRIs1-OpR8eB_vIV9-9" target="6LMTRIs1-OpR8eB_vIV9-9">
          <mxGeometry relative="1" as="geometry" />
        </mxCell>
        <mxCell id="6LMTRIs1-OpR8eB_vIV9-69" value="" style="edgeStyle=orthogonalEdgeStyle;rounded=0;orthogonalLoop=1;jettySize=auto;html=1;" edge="1" parent="1" source="6LMTRIs1-OpR8eB_vIV9-12" target="6LMTRIs1-OpR8eB_vIV9-68">
          <mxGeometry relative="1" as="geometry" />
        </mxCell>
        <mxCell id="6LMTRIs1-OpR8eB_vIV9-107" style="edgeStyle=orthogonalEdgeStyle;rounded=0;orthogonalLoop=1;jettySize=auto;html=1;exitX=0.5;exitY=1;exitDx=0;exitDy=0;" edge="1" parent="1" source="6LMTRIs1-OpR8eB_vIV9-12" target="6LMTRIs1-OpR8eB_vIV9-47">
          <mxGeometry relative="1" as="geometry" />
        </mxCell>
        <mxCell id="6LMTRIs1-OpR8eB_vIV9-12" value="User story" style="ellipse;whiteSpace=wrap;html=1;fillColor=#ffcd28;gradientColor=#ffa500;strokeColor=#d79b00;" vertex="1" parent="1">
          <mxGeometry x="380" y="430" width="120" height="50" as="geometry" />
        </mxCell>
        <mxCell id="6LMTRIs1-OpR8eB_vIV9-67" style="edgeStyle=orthogonalEdgeStyle;rounded=0;orthogonalLoop=1;jettySize=auto;html=1;entryX=0;entryY=0.5;entryDx=0;entryDy=0;" edge="1" parent="1" source="6LMTRIs1-OpR8eB_vIV9-13" target="6LMTRIs1-OpR8eB_vIV9-34">
          <mxGeometry relative="1" as="geometry" />
        </mxCell>
        <mxCell id="6LMTRIs1-OpR8eB_vIV9-109" style="edgeStyle=orthogonalEdgeStyle;rounded=0;orthogonalLoop=1;jettySize=auto;html=1;exitX=0.5;exitY=1;exitDx=0;exitDy=0;entryX=0.5;entryY=0;entryDx=0;entryDy=0;" edge="1" parent="1" source="6LMTRIs1-OpR8eB_vIV9-13" target="6LMTRIs1-OpR8eB_vIV9-14">
          <mxGeometry relative="1" as="geometry" />
        </mxCell>
        <mxCell id="6LMTRIs1-OpR8eB_vIV9-13" value="Sync data" style="ellipse;whiteSpace=wrap;html=1;fillColor=#dae8fc;gradientColor=#7ea6e0;strokeColor=#6c8ebf;" vertex="1" parent="1">
          <mxGeometry x="380" y="600" width="120" height="40" as="geometry" />
        </mxCell>
        <mxCell id="6LMTRIs1-OpR8eB_vIV9-14" value="Generate report" style="ellipse;whiteSpace=wrap;html=1;fillColor=#d5e8d4;gradientColor=#97d077;strokeColor=#82b366;" vertex="1" parent="1">
          <mxGeometry x="380" y="670" width="120" height="40" as="geometry" />
        </mxCell>
        <mxCell id="6LMTRIs1-OpR8eB_vIV9-25" value="COUNTRIES" style="ellipse;whiteSpace=wrap;html=1;fillColor=#ffff88;strokeColor=#36393d;" vertex="1" parent="1">
          <mxGeometry x="1050" y="40" width="120" height="40" as="geometry" />
        </mxCell>
        <mxCell id="6LMTRIs1-OpR8eB_vIV9-26" value="CITIES" style="ellipse;whiteSpace=wrap;html=1;fillColor=#ffff88;strokeColor=#36393d;" vertex="1" parent="1">
          <mxGeometry x="1030" y="250" width="120" height="40" as="geometry" />
        </mxCell>
        <mxCell id="6LMTRIs1-OpR8eB_vIV9-27" value="CAPITALS CITIES" style="ellipse;whiteSpace=wrap;html=1;fillColor=#ffff88;strokeColor=#36393d;" vertex="1" parent="1">
          <mxGeometry x="1170" y="160" width="120" height="40" as="geometry" />
        </mxCell>
        <mxCell id="6LMTRIs1-OpR8eB_vIV9-28" value="REGION" style="ellipse;whiteSpace=wrap;html=1;fillColor=#ffff88;strokeColor=#36393d;" vertex="1" parent="1">
          <mxGeometry x="900" y="40" width="120" height="30" as="geometry" />
        </mxCell>
        <mxCell id="6LMTRIs1-OpR8eB_vIV9-29" value="CONTINENT" style="ellipse;whiteSpace=wrap;html=1;fillColor=#ffff88;strokeColor=#36393d;" vertex="1" parent="1">
          <mxGeometry x="740" y="40" width="120" height="30" as="geometry" />
        </mxCell>
        <mxCell id="6LMTRIs1-OpR8eB_vIV9-30" value="LANGUAGE" style="ellipse;whiteSpace=wrap;html=1;fillColor=#fa6800;fontColor=#000000;strokeColor=#C73500;" vertex="1" parent="1">
          <mxGeometry x="740" y="350" width="120" height="40" as="geometry" />
        </mxCell>
        <mxCell id="6LMTRIs1-OpR8eB_vIV9-31" value="COUNTRY" style="ellipse;whiteSpace=wrap;html=1;fillColor=#fa6800;fontColor=#000000;strokeColor=#C73500;" vertex="1" parent="1">
          <mxGeometry x="570" y="350" width="120" height="40" as="geometry" />
        </mxCell>
        <mxCell id="6LMTRIs1-OpR8eB_vIV9-32" value="DISTRICT" style="ellipse;whiteSpace=wrap;html=1;fillColor=#ffff88;strokeColor=#36393d;" vertex="1" parent="1">
          <mxGeometry x="870" y="255" width="120" height="35" as="geometry" />
        </mxCell>
        <mxCell id="6LMTRIs1-OpR8eB_vIV9-33" value="NAME" style="ellipse;whiteSpace=wrap;html=1;fillColor=#ffff88;strokeColor=#36393d;" vertex="1" parent="1">
          <mxGeometry x="660" y="160" width="120" height="40" as="geometry" />
        </mxCell>
        <mxCell id="6LMTRIs1-OpR8eB_vIV9-34" value="N populated countrry" style="ellipse;whiteSpace=wrap;html=1;fillColor=#dae8fc;gradientColor=#7ea6e0;strokeColor=#6c8ebf;" vertex="1" parent="1">
          <mxGeometry x="650" y="592.5" width="120" height="55" as="geometry" />
        </mxCell>
        <mxCell id="6LMTRIs1-OpR8eB_vIV9-38" value="country code" style="ellipse;whiteSpace=wrap;html=1;fillColor=#ffff88;strokeColor=#36393d;" vertex="1" parent="1">
          <mxGeometry x="720" y="255" width="120" height="30" as="geometry" />
        </mxCell>
        <mxCell id="6LMTRIs1-OpR8eB_vIV9-105" style="edgeStyle=orthogonalEdgeStyle;rounded=0;orthogonalLoop=1;jettySize=auto;html=1;exitX=0.5;exitY=1;exitDx=0;exitDy=0;entryX=0.5;entryY=0;entryDx=0;entryDy=0;" edge="1" parent="1" source="6LMTRIs1-OpR8eB_vIV9-46" target="6LMTRIs1-OpR8eB_vIV9-9">
          <mxGeometry relative="1" as="geometry" />
        </mxCell>
        <mxCell id="6LMTRIs1-OpR8eB_vIV9-46" value="Manage user&amp;nbsp;" style="ellipse;whiteSpace=wrap;html=1;fillColor=#b0e3e6;strokeColor=#0e8088;" vertex="1" parent="1">
          <mxGeometry x="380" y="90" width="120" height="60" as="geometry" />
        </mxCell>
        <mxCell id="6LMTRIs1-OpR8eB_vIV9-71" value="" style="edgeStyle=orthogonalEdgeStyle;rounded=0;orthogonalLoop=1;jettySize=auto;html=1;" edge="1" parent="1" source="6LMTRIs1-OpR8eB_vIV9-47" target="6LMTRIs1-OpR8eB_vIV9-70">
          <mxGeometry relative="1" as="geometry" />
        </mxCell>
        <mxCell id="6LMTRIs1-OpR8eB_vIV9-108" style="edgeStyle=orthogonalEdgeStyle;rounded=0;orthogonalLoop=1;jettySize=auto;html=1;exitX=0.5;exitY=1;exitDx=0;exitDy=0;entryX=0.5;entryY=0;entryDx=0;entryDy=0;" edge="1" parent="1" source="6LMTRIs1-OpR8eB_vIV9-47" target="6LMTRIs1-OpR8eB_vIV9-13">
          <mxGeometry relative="1" as="geometry" />
        </mxCell>
        <mxCell id="6LMTRIs1-OpR8eB_vIV9-47" value="Backup Data" style="ellipse;whiteSpace=wrap;html=1;fillColor=#fff2cc;strokeColor=#d6b656;" vertex="1" parent="1">
          <mxGeometry x="380" y="515" width="120" height="50" as="geometry" />
        </mxCell>
        <mxCell id="6LMTRIs1-OpR8eB_vIV9-48" style="edgeStyle=orthogonalEdgeStyle;rounded=0;orthogonalLoop=1;jettySize=auto;html=1;exitX=0.5;exitY=1;exitDx=0;exitDy=0;" edge="1" parent="1" source="6LMTRIs1-OpR8eB_vIV9-34" target="6LMTRIs1-OpR8eB_vIV9-34">
          <mxGeometry relative="1" as="geometry" />
        </mxCell>
        <mxCell id="6LMTRIs1-OpR8eB_vIV9-51" value="" style="endArrow=classic;html=1;rounded=0;" edge="1" parent="1" target="6LMTRIs1-OpR8eB_vIV9-28">
          <mxGeometry width="50" height="50" relative="1" as="geometry">
            <mxPoint x="780" y="180" as="sourcePoint" />
            <mxPoint x="840" y="130" as="targetPoint" />
          </mxGeometry>
        </mxCell>
        <mxCell id="6LMTRIs1-OpR8eB_vIV9-52" value="" style="endArrow=classic;html=1;rounded=0;entryX=0.342;entryY=0.9;entryDx=0;entryDy=0;entryPerimeter=0;" edge="1" parent="1" target="6LMTRIs1-OpR8eB_vIV9-29">
          <mxGeometry width="50" height="50" relative="1" as="geometry">
            <mxPoint x="781" y="180" as="sourcePoint" />
            <mxPoint x="870" y="60" as="targetPoint" />
          </mxGeometry>
        </mxCell>
        <mxCell id="6LMTRIs1-OpR8eB_vIV9-53" value="" style="endArrow=classic;html=1;rounded=0;" edge="1" parent="1" target="6LMTRIs1-OpR8eB_vIV9-25">
          <mxGeometry width="50" height="50" relative="1" as="geometry">
            <mxPoint x="780" y="180" as="sourcePoint" />
            <mxPoint x="1100" y="130" as="targetPoint" />
          </mxGeometry>
        </mxCell>
        <mxCell id="6LMTRIs1-OpR8eB_vIV9-54" value="" style="endArrow=classic;html=1;rounded=0;entryX=0;entryY=0.5;entryDx=0;entryDy=0;" edge="1" parent="1" target="6LMTRIs1-OpR8eB_vIV9-27">
          <mxGeometry width="50" height="50" relative="1" as="geometry">
            <mxPoint x="790" y="180" as="sourcePoint" />
            <mxPoint x="1110" y="205" as="targetPoint" />
          </mxGeometry>
        </mxCell>
        <mxCell id="6LMTRIs1-OpR8eB_vIV9-55" value="" style="endArrow=classic;html=1;rounded=0;entryX=0.5;entryY=0;entryDx=0;entryDy=0;" edge="1" parent="1" target="6LMTRIs1-OpR8eB_vIV9-26">
          <mxGeometry width="50" height="50" relative="1" as="geometry">
            <mxPoint x="790" y="180" as="sourcePoint" />
            <mxPoint x="1030" y="240" as="targetPoint" />
            <Array as="points">
              <mxPoint x="780" y="180" />
            </Array>
          </mxGeometry>
        </mxCell>
        <mxCell id="6LMTRIs1-OpR8eB_vIV9-56" value="" style="endArrow=classic;html=1;rounded=0;entryX=0.5;entryY=0;entryDx=0;entryDy=0;exitX=1;exitY=0.5;exitDx=0;exitDy=0;" edge="1" parent="1" source="6LMTRIs1-OpR8eB_vIV9-33" target="6LMTRIs1-OpR8eB_vIV9-32">
          <mxGeometry width="50" height="50" relative="1" as="geometry">
            <mxPoint x="790" y="180" as="sourcePoint" />
            <mxPoint x="890" y="230" as="targetPoint" />
          </mxGeometry>
        </mxCell>
        <mxCell id="6LMTRIs1-OpR8eB_vIV9-57" value="" style="endArrow=classic;html=1;rounded=0;entryX=0.5;entryY=0;entryDx=0;entryDy=0;exitX=1;exitY=0.5;exitDx=0;exitDy=0;" edge="1" parent="1" source="6LMTRIs1-OpR8eB_vIV9-33" target="6LMTRIs1-OpR8eB_vIV9-38">
          <mxGeometry width="50" height="50" relative="1" as="geometry">
            <mxPoint x="780" y="200" as="sourcePoint" />
            <mxPoint x="810" y="225" as="targetPoint" />
          </mxGeometry>
        </mxCell>
        <mxCell id="6LMTRIs1-OpR8eB_vIV9-58" value="" style="endArrow=classic;html=1;rounded=0;entryX=0;entryY=0.5;entryDx=0;entryDy=0;exitX=1;exitY=0.5;exitDx=0;exitDy=0;" edge="1" parent="1" source="6LMTRIs1-OpR8eB_vIV9-10" target="6LMTRIs1-OpR8eB_vIV9-31">
          <mxGeometry width="50" height="50" relative="1" as="geometry">
            <mxPoint x="500" y="380" as="sourcePoint" />
            <mxPoint x="550" y="330" as="targetPoint" />
          </mxGeometry>
        </mxCell>
        <mxCell id="6LMTRIs1-OpR8eB_vIV9-59" value="" style="endArrow=classic;html=1;rounded=0;entryX=0;entryY=0.5;entryDx=0;entryDy=0;" edge="1" parent="1" target="6LMTRIs1-OpR8eB_vIV9-30">
          <mxGeometry width="50" height="50" relative="1" as="geometry">
            <mxPoint x="690" y="370" as="sourcePoint" />
            <mxPoint x="740" y="320" as="targetPoint" />
          </mxGeometry>
        </mxCell>
        <mxCell id="6LMTRIs1-OpR8eB_vIV9-61" value="User" style="shape=umlActor;verticalLabelPosition=bottom;verticalAlign=top;html=1;outlineConnect=0;" vertex="1" parent="1">
          <mxGeometry x="75" y="-70" width="30" height="60" as="geometry" />
        </mxCell>
        <mxCell id="6LMTRIs1-OpR8eB_vIV9-102" style="edgeStyle=orthogonalEdgeStyle;rounded=0;orthogonalLoop=1;jettySize=auto;html=1;entryX=0;entryY=0.5;entryDx=0;entryDy=0;" edge="1" parent="1" source="6LMTRIs1-OpR8eB_vIV9-62" target="6LMTRIs1-OpR8eB_vIV9-14">
          <mxGeometry relative="1" as="geometry">
            <mxPoint x="-20" y="820" as="targetPoint" />
            <Array as="points">
              <mxPoint x="-20" y="690" />
            </Array>
          </mxGeometry>
        </mxCell>
        <mxCell id="6LMTRIs1-OpR8eB_vIV9-62" value="Admin" style="shape=umlActor;verticalLabelPosition=bottom;verticalAlign=top;html=1;outlineConnect=0;" vertex="1" parent="1">
          <mxGeometry x="-35" y="350" width="30" height="60" as="geometry" />
        </mxCell>
        <mxCell id="6LMTRIs1-OpR8eB_vIV9-64" value="External system" style="shape=umlActor;verticalLabelPosition=bottom;verticalAlign=top;html=1;outlineConnect=0;" vertex="1" parent="1">
          <mxGeometry x="695" y="680" width="30" height="60" as="geometry" />
        </mxCell>
        <mxCell id="6LMTRIs1-OpR8eB_vIV9-66" style="edgeStyle=orthogonalEdgeStyle;rounded=0;orthogonalLoop=1;jettySize=auto;html=1;" edge="1" parent="1" target="6LMTRIs1-OpR8eB_vIV9-10">
          <mxGeometry relative="1" as="geometry">
            <mxPoint x="720" y="271" as="sourcePoint" />
            <mxPoint x="520" y="354" as="targetPoint" />
          </mxGeometry>
        </mxCell>
        <mxCell id="6LMTRIs1-OpR8eB_vIV9-68" value="REQUIRMENTS" style="ellipse;whiteSpace=wrap;html=1;fillColor=#fff2cc;gradientColor=#ffd966;strokeColor=#d6b656;" vertex="1" parent="1">
          <mxGeometry x="580" y="430" width="120" height="50" as="geometry" />
        </mxCell>
        <mxCell id="6LMTRIs1-OpR8eB_vIV9-70" value="REPORTS" style="ellipse;whiteSpace=wrap;html=1;fillColor=#f5f5f5;gradientColor=#b3b3b3;strokeColor=#666666;" vertex="1" parent="1">
          <mxGeometry x="580" y="515" width="120" height="50" as="geometry" />
        </mxCell>
        <mxCell id="6LMTRIs1-OpR8eB_vIV9-83" value="" style="endArrow=classic;html=1;rounded=0;exitX=0;exitY=0.5;exitDx=0;exitDy=0;entryX=1;entryY=1;entryDx=0;entryDy=0;" edge="1" parent="1" source="6LMTRIs1-OpR8eB_vIV9-76" target="6LMTRIs1-OpR8eB_vIV9-13">
          <mxGeometry width="50" height="50" relative="1" as="geometry">
            <mxPoint x="622.04" y="719" as="sourcePoint" />
            <mxPoint x="460" y="650" as="targetPoint" />
          </mxGeometry>
        </mxCell>
        <mxCell id="6LMTRIs1-OpR8eB_vIV9-85" value="" style="endArrow=classic;html=1;rounded=0;exitX=1;exitY=0.5;exitDx=0;exitDy=0;" edge="1" parent="1" source="6LMTRIs1-OpR8eB_vIV9-78">
          <mxGeometry width="50" height="50" relative="1" as="geometry">
            <mxPoint x="220" y="112" as="sourcePoint" />
            <mxPoint x="380" y="120" as="targetPoint" />
          </mxGeometry>
        </mxCell>
        <mxCell id="6LMTRIs1-OpR8eB_vIV9-86" value="" style="endArrow=classic;html=1;rounded=0;exitX=1;exitY=0.5;exitDx=0;exitDy=0;" edge="1" parent="1" source="6LMTRIs1-OpR8eB_vIV9-78">
          <mxGeometry width="50" height="50" relative="1" as="geometry">
            <mxPoint x="330" y="250" as="sourcePoint" />
            <mxPoint x="380" y="200" as="targetPoint" />
          </mxGeometry>
        </mxCell>
        <mxCell id="6LMTRIs1-OpR8eB_vIV9-87" value="" style="endArrow=classic;html=1;rounded=0;exitX=1;exitY=0.5;exitDx=0;exitDy=0;entryX=0;entryY=0.5;entryDx=0;entryDy=0;" edge="1" parent="1" target="6LMTRIs1-OpR8eB_vIV9-12">
          <mxGeometry width="50" height="50" relative="1" as="geometry">
            <mxPoint x="130" y="-42.5" as="sourcePoint" />
            <mxPoint x="370" y="452.5" as="targetPoint" />
          </mxGeometry>
        </mxCell>
        <mxCell id="6LMTRIs1-OpR8eB_vIV9-91" value="" style="endArrow=classic;html=1;rounded=0;entryX=0;entryY=0.5;entryDx=0;entryDy=0;" edge="1" parent="1" target="6LMTRIs1-OpR8eB_vIV9-6">
          <mxGeometry width="50" height="50" relative="1" as="geometry">
            <mxPoint x="20" y="370" as="sourcePoint" />
            <mxPoint x="70" y="320" as="targetPoint" />
          </mxGeometry>
        </mxCell>
        <mxCell id="6LMTRIs1-OpR8eB_vIV9-92" value="" style="endArrow=classic;html=1;rounded=0;" edge="1" parent="1">
          <mxGeometry width="50" height="50" relative="1" as="geometry">
            <mxPoint x="20" y="370" as="sourcePoint" />
            <mxPoint x="380" y="120" as="targetPoint" />
          </mxGeometry>
        </mxCell>
        <mxCell id="6LMTRIs1-OpR8eB_vIV9-93" value="" style="endArrow=classic;html=1;rounded=0;" edge="1" parent="1">
          <mxGeometry width="50" height="50" relative="1" as="geometry">
            <mxPoint x="20" y="370" as="sourcePoint" />
            <mxPoint x="380" y="200" as="targetPoint" />
          </mxGeometry>
        </mxCell>
        <mxCell id="6LMTRIs1-OpR8eB_vIV9-94" value="" style="endArrow=classic;html=1;rounded=0;exitX=0.988;exitY=0.375;exitDx=0;exitDy=0;exitPerimeter=0;entryX=0;entryY=0.5;entryDx=0;entryDy=0;" edge="1" parent="1" source="6LMTRIs1-OpR8eB_vIV9-77" target="6LMTRIs1-OpR8eB_vIV9-10">
          <mxGeometry width="50" height="50" relative="1" as="geometry">
            <mxPoint x="30" y="370" as="sourcePoint" />
            <mxPoint x="190" y="340" as="targetPoint" />
          </mxGeometry>
        </mxCell>
        <mxCell id="6LMTRIs1-OpR8eB_vIV9-95" value="" style="endArrow=classic;html=1;rounded=0;entryX=0;entryY=0.5;entryDx=0;entryDy=0;" edge="1" parent="1" target="6LMTRIs1-OpR8eB_vIV9-12">
          <mxGeometry width="50" height="50" relative="1" as="geometry">
            <mxPoint x="20" y="370" as="sourcePoint" />
            <mxPoint x="130" y="380" as="targetPoint" />
          </mxGeometry>
        </mxCell>
        <mxCell id="6LMTRIs1-OpR8eB_vIV9-96" value="" style="endArrow=classic;html=1;rounded=0;exitX=1.038;exitY=0.4;exitDx=0;exitDy=0;exitPerimeter=0;" edge="1" parent="1" source="6LMTRIs1-OpR8eB_vIV9-77">
          <mxGeometry width="50" height="50" relative="1" as="geometry">
            <mxPoint x="330" y="592.5" as="sourcePoint" />
            <mxPoint x="380" y="542.5" as="targetPoint" />
          </mxGeometry>
        </mxCell>
        <mxCell id="6LMTRIs1-OpR8eB_vIV9-97" value="" style="endArrow=classic;html=1;rounded=0;exitX=1.038;exitY=0.413;exitDx=0;exitDy=0;exitPerimeter=0;" edge="1" parent="1" source="6LMTRIs1-OpR8eB_vIV9-77">
          <mxGeometry width="50" height="50" relative="1" as="geometry">
            <mxPoint x="330" y="670" as="sourcePoint" />
            <mxPoint x="380" y="620" as="targetPoint" />
          </mxGeometry>
        </mxCell>
      </root>
    </mxGraphModel>
  </diagram>
</mxfile>
